<svg width="56" height="56" viewBox="0 0 56 56" fill="none" xmlns="http://www.w3.org/2000/svg">
<g clip-path="url(#clip0_376_22162)">
<path d="M0.55857 0.55857H55.4346V55.4346H0.55857V0.55857ZM0 55.9932H56V0H0V56V55.9932Z" fill="white"/>
<path d="M13.9642 43.9908L14.4343 42.5671C14.5024 42.3151 14.5705 42.0494 14.6182 41.7088C14.6659 42.0562 14.734 42.3219 14.8089 42.5671L15.2789 43.9908H13.9711H13.9642ZM13.4261 39.7811L10.9194 46.4771H13.1604L13.4602 45.5847H15.7762L16.0623 46.4771H18.3034L15.8102 39.7811H13.4397H13.4261Z" fill="white"/>
<path d="M20.9804 39.7811H18.7734V46.4771H23.8414V44.5425H20.9804V39.7811Z" fill="white"/>
<path d="M27.295 44.6243H26.6751V41.6407H27.295C28.0783 41.6407 28.5552 42.0426 28.5552 43.1325C28.5552 44.2224 28.0783 44.6243 27.295 44.6243ZM27.3495 39.7811H24.4613V46.4771H27.3495C29.754 46.4771 30.8235 45.0875 30.8235 43.1325C30.8235 41.1775 29.754 39.7811 27.3495 39.7811Z" fill="white"/>
<path d="M33.7321 43.9908L34.2022 42.5671C34.2703 42.3151 34.3384 42.0494 34.3861 41.7088C34.4338 42.0562 34.5019 42.3219 34.5768 42.5671L35.0468 43.9908H33.739H33.7321ZM33.194 39.7811L30.6873 46.4771H32.9284L33.2281 45.5847H35.5441L35.8302 46.4771H38.0713L35.5782 39.7811H33.2076H33.194Z" fill="white"/>
<path d="M41.6066 42.8395H40.7551V41.5794H41.6066C42.0358 41.5794 42.2878 41.8382 42.2878 42.2129C42.2878 42.5875 42.0426 42.8464 41.6066 42.8464M43.3573 44.1474C44.0248 43.8136 44.5016 43.1938 44.5016 42.1515C44.5016 40.326 43.078 39.7878 41.6543 39.7878H38.5481V46.4839H40.7551V44.5016H41.2728L42.6488 46.4839H45.0806L43.3573 44.1474Z" fill="white"/>
<path d="M44.8967 8.95752H38.1122V21.3959H44.8967V8.95752Z" fill="white"/>
<path d="M40.5917 31.1232C40.5917 32.2267 39.6516 32.2063 39.0181 32.2063H35.8711V37.7171H44.9035V27.0429C44.9035 27.0429 43.6365 24.4612 40.5576 22.3768L36.5386 26.3481C36.5386 26.3481 40.5985 28.4462 40.5985 31.1232" fill="white"/>
<path d="M20.2515 18.0036C20.2515 14.4002 22.5744 11.8253 22.5744 11.8253L27.2064 14.4138C24.9994 17.1862 25.4626 20.0744 28.0307 20.0744C30.5987 20.0744 30.517 17.7311 30.517 17.4519V8.95752H36.0005V17.8606C36.0005 21.6956 32.9011 25.7146 28.092 25.7146C23.7665 25.7146 20.2515 22.2065 20.2515 17.9968" fill="white"/>
<path d="M20.4423 23.3373H18.0718V25.9735C18.0718 31.9951 14.7544 32.5197 12.8471 32.4992H11.0624V37.7103H19.9041C22.9627 35.5441 24.5771 31.8725 24.8155 26.6615C23.0444 26.0076 21.5254 24.8359 20.4423 23.3305" fill="white"/>
<path d="M28.092 27.2541C27.7105 27.2541 27.3358 27.2268 26.968 27.186V37.717H33.7458V25.374C32.1722 26.5525 30.2173 27.2541 28.092 27.2541Z" fill="white"/>
</g>
<defs>
<clipPath id="clip0_376_22162">
<rect width="56" height="56" fill="white"/>
</clipPath>
</defs>
</svg>
